HIERARCHY
ROOT Hips
{
	OFFSET -32.860001 56.121803 44.745396
	CHANNELS 6 Xposition Yposition Zposition Zrotation Xrotation Yrotation
	JOINT Chest
	{
		OFFSET -0.637402 0.831600 5.390099
		CHANNELS 6 Xposition Yposition Zposition Zrotation Xrotation Yrotation
		JOINT Chest2
		{
			OFFSET 0.000000 0.000000 4.429901
			CHANNELS 6 Xposition Yposition Zposition Zrotation Xrotation Yrotation
			JOINT Neck
			{
				OFFSET 0.000000 0.000000 10.301395
				CHANNELS 6 Xposition Yposition Zposition Zrotation Xrotation Yrotation
				JOINT Head
				{
					OFFSET 0.000000 0.000000 2.173897
					CHANNELS 6 Xposition Yposition Zposition Zrotation Xrotation Yrotation
					End Site
					{
						OFFSET 0.000000 0.000000 8.298004
					}
				}
			}
			JOINT LeftCollar
			{
				OFFSET 2.142401 -0.572701 5.717800
				CHANNELS 6 Xposition Yposition Zposition Zrotation Xrotation Yrotation
				JOINT LeftShoulder
				{
					OFFSET 5.674000 0.000000 0.000000
					CHANNELS 6 Xposition Yposition Zposition Zrotation Xrotation Yrotation
					JOINT LeftElbow
					{
						OFFSET 0.000000 0.000000 -12.238701
						CHANNELS 6 Xposition Yposition Zposition Zrotation Xrotation Yrotation
						JOINT LeftWrist
						{
							OFFSET 0.000000 0.000000 -10.253700
							CHANNELS 6 Xposition Yposition Zposition Zrotation Xrotation Yrotation
							End Site
							{
								OFFSET 0.000000 0.000000 -2.173901
							}
						}
					}
				}
			}
			JOINT RightCollar
			{
				OFFSET -2.882599 -1.580101 6.695801
				CHANNELS 6 Xposition Yposition Zposition Zrotation Xrotation Yrotation
				JOINT RightShoulder
				{
					OFFSET -4.235600 0.000000 0.000000
					CHANNELS 6 Xposition Yposition Zposition Zrotation Xrotation Yrotation
					JOINT RightElbow
					{
						OFFSET 0.000000 0.000000 -10.709900
						CHANNELS 6 Xposition Yposition Zposition Zrotation Xrotation Yrotation
						JOINT RightWrist
						{
							OFFSET 0.000000 0.000000 -11.716801
							CHANNELS 6 Xposition Yposition Zposition Zrotation Xrotation Yrotation
							End Site
							{
								OFFSET 0.000000 0.000000 -2.173901
							}
						}
					}
				}
			}
		}
	}
	JOINT LeftHip
	{
		OFFSET 2.279499 0.210400 -2.475502
		CHANNELS 6 Xposition Yposition Zposition Zrotation Xrotation Yrotation
		JOINT LeftKnee
		{
			OFFSET 0.000000 -0.000004 -20.742800
			CHANNELS 6 Xposition Yposition Zposition Zrotation Xrotation Yrotation
			JOINT LeftAnkle
			{
				OFFSET 0.000000 0.000000 -16.666000
				CHANNELS 6 Xposition Yposition Zposition Zrotation Xrotation Yrotation
				End Site
				{
					OFFSET 0.000000 -8.310898 0.000000
				}
			}
		}
	}
	JOINT RightHip
	{
		OFFSET -1.961899 0.232300 -2.727402
		CHANNELS 6 Xposition Yposition Zposition Zrotation Xrotation Yrotation
		JOINT RightKnee
		{
			OFFSET 0.000000 -0.000004 -20.526800
			CHANNELS 6 Xposition Yposition Zposition Zrotation Xrotation Yrotation
			JOINT RightAnkle
			{
				OFFSET 0.000000 0.000000 -16.867300
				CHANNELS 6 Xposition Yposition Zposition Zrotation Xrotation Yrotation
				End Site
				{
					OFFSET 0.000000 -7.186401 0.000000
				}
			}
		}
	}
}
MOTION
Frames: 5
Frame Time: 0.041667
24.420410 -40.693604 38.920692 6047.924217 10.059422 9.744778 -0.637403 0.831597 5.390100 -7.922340 -1.955901 8.450007 -0.000001 0.000005 4.429899 2.178802 -4.711949 -0.362799 0.000002 -0.000001 10.301399 403.040720 -5.398462 -14.567690 -0.000006 0.000001 2.173908 -356.735070 -0.310758 2.547657 2.142400 -0.572698 5.717798 5.194008 -3.805915 -9.053440 5.673993 0.000004 -0.000007 1789.555680 -713.808044 -814.508910 0.000002 -0.000004 -12.238700 -633.300276 -176.924986 -292.530227 -0.000010 0.000003 -10.253695 1562.247640 185.562907 559.067922 -2.882600 -1.580095 6.695787 -9.046826 -6.346297 16.690293 -4.235615 -0.000002 -0.000004 -2154.302426 300.157745 -613.797081 0.000002 0.000010 -10.709898 479.639871 -158.471781 153.402839 0.000003 0.000005 -11.716802 -188.832450 -4.898126 -42.547782 2.279493 0.210396 -2.475508 867.612101 -22.199443 71.374999 0.000001 -0.000003 -20.742805 -1493.975473 222.584336 -153.603318 -0.000003 0.000000 -16.666004 1229.472737 -3.892250 66.787249 -1.961892 0.232302 -2.727395 -1123.294113 -33.516930 -29.921389 0.000001 -0.000005 -20.526796 995.892398 122.017013 -251.622721 -0.000004 0.000003 -16.867298 -36.479183 1.604729 -13.579766
24.430603 -40.684402 38.909592 6047.974050 10.064192 9.750030 -0.637399 0.831595 5.390097 -7.964238 -1.931997 8.420422 0.000001 -0.000000 4.429901 2.180136 -4.711291 -0.363613 -0.000007 -0.000001 10.301395 403.182351 -5.421821 -14.538415 -0.000001 0.000001 2.173907 -356.796761 -0.293295 2.566327 2.142395 -0.572701 5.717803 5.875646 -4.128752 -9.130722 5.674009 -0.000001 -0.000010 1788.819003 -713.556911 -814.308048 -0.000007 -0.000000 -12.238707 -633.544251 -176.725585 -292.530554 -0.000006 0.000004 -10.253695 1561.927332 185.563057 559.080162 -2.882607 -1.580094 6.695792 -9.333668 -6.739382 17.069194 -4.235606 0.000003 0.000003 -2154.413676 299.766293 -614.572990 0.000008 -0.000002 -10.709894 480.230273 -158.392155 153.370723 -0.000007 -0.000003 -11.716806 -188.835128 -4.934539 -42.482868 2.279497 0.210395 -2.475504 867.617839 -22.175608 71.455827 0.000002 0.000000 -20.742798 -1492.893462 222.359144 -152.783204 -0.000003 -0.000003 -16.666006 1228.742398 -3.949472 66.629370 -1.961901 0.232292 -2.727397 -1123.500767 -33.500394 -30.012756 0.000011 -0.000010 -20.526794 996.017417 121.936826 -251.710994 0.000012 -0.000002 -16.867304 -36.420037 1.597690 -13.482886
24.440609 -40.675209 38.899700 6048.019949 10.093198 9.748759 -0.637406 0.831599 5.390098 -7.975889 -1.940835 8.394470 0.000002 -0.000002 4.429902 2.169381 -4.702473 -0.363338 0.000006 -0.000006 10.301390 403.423921 -5.460200 -14.505192 -0.000000 -0.000009 2.173902 -356.872357 -0.260469 2.614243 2.142399 -0.572700 5.717797 6.016932 -4.198300 -9.177876 5.674004 -0.000002 0.000001 1788.652128 -713.430963 -814.202699 -0.000005 0.000005 -12.238710 -633.531137 -176.681079 -292.375482 -0.000001 0.000001 -10.253696 1561.865914 185.598561 558.770454 -2.882603 -1.580098 6.695787 -9.532268 -7.050080 17.419492 -4.235601 -0.000004 -0.000012 -2154.643826 299.416396 -615.310760 0.000003 0.000015 -10.709896 480.696693 -158.318608 153.314743 -0.000001 -0.000002 -11.716789 -188.764490 -4.932600 -42.474624 2.279491 0.210399 -2.475500 867.611555 -22.149731 71.531526 -0.000007 -0.000001 -20.742809 -1491.548625 222.041991 -151.785942 -0.000002 0.000002 -16.666004 1227.839393 -4.024735 66.428384 -1.961898 0.232308 -2.727397 -1123.751462 -33.496218 -30.139617 0.000004 -0.000011 -20.526796 996.190412 121.858552 -251.816780 0.000004 0.000003 -16.867298 -36.363384 1.589178 -13.395849
24.450214 -40.665916 38.891293 6048.059290 10.143493 9.735197 -0.637400 0.831598 5.390108 -7.961897 -1.982891 8.380903 0.000000 -0.000004 4.429902 2.148635 -4.683015 -0.362086 -0.000001 -0.000002 10.301399 403.879030 -5.595839 -14.474580 -0.000003 -0.000009 2.173903 -356.988033 -0.151938 2.719507 2.142395 -0.572699 5.717799 6.138767 -4.263472 -9.234905 5.674008 0.000000 0.000001 1788.500115 -713.340258 -814.084619 0.000004 -0.000005 -12.238703 -633.459775 -176.824691 -292.228223 0.000000 0.000007 -10.253697 1562.063280 185.629406 558.484296 -2.882606 -1.580099 6.695791 -9.633504 -7.274167 17.740674 -4.235603 -0.000001 -0.000009 -2155.004897 299.159362 -616.013887 0.000007 0.000004 -10.709898 481.057108 -158.233408 153.248230 0.000000 -0.000007 -11.716806 -188.711501 -4.854676 -42.566559 2.279498 0.210402 -2.475494 867.582977 -22.130525 71.589665 -0.000007 0.000000 -20.742800 -1489.705567 221.545300 -150.449752 -0.000004 0.000002 -16.666004 1226.600779 -4.133780 66.152875 -1.961892 0.232299 -2.727392 -1124.043248 -33.505595 -30.298005 0.000000 -0.000007 -20.526800 996.410071 121.779022 -251.935790 0.000002 0.000005 -16.867296 -36.302100 1.583158 -13.318158
24.459305 -40.655586 38.883694 6048.100381 10.213045 9.716863 -0.637404 0.831603 5.390097 -7.924204 -2.051145 8.373594 0.000006 0.000012 4.429898 2.115990 -4.654602 -0.359826 0.000005 -0.000010 10.301400 404.578332 -5.734112 -14.456997 0.000002 -0.000009 2.173900 -357.054067 -0.066322 2.854564 2.142399 -0.572702 5.717803 6.234309 -4.322982 -9.285110 5.673996 -0.000003 -0.000012 1788.374003 -713.272174 -813.973588 0.000004 0.000002 -12.238692 -633.361475 -177.043080 -292.087904 -0.000006 0.000006 -10.253692 1562.341405 185.637780 558.141257 -2.882607 -1.580101 6.695799 -9.667714 -7.437767 18.038487 -4.235604 -0.000001 -0.000006 -2155.448586 298.982898 -616.681825 0.000002 0.000000 -10.709908 481.285400 -158.159519 153.142281 -0.000006 -0.000011 -11.716797 -188.599363 -4.664909 -42.801592 2.279494 0.210402 -2.475503 867.536696 -22.109882 71.640072 -0.000006 -0.000006 -20.742805 -1487.623725 220.916485 -148.961303 -0.000003 -0.000001 -16.666000 1225.178460 -4.258322 65.830074 -1.961895 0.232304 -2.727395 -1124.348804 -33.527271 -30.474576 0.000004 -0.000005 -20.526800 996.611480 121.679970 -252.033161 0.000001 -0.000004 -16.867302 -36.228775 1.593230 -13.228867
